<svg width="25" height="24" viewBox="0 0 25 24" fill="none" xmlns="http://www.w3.org/2000/svg">
<path d="M17.4004 8H5.90039L3.40039 14L7.90039 21.5L11.9004 20.5L16.9004 22L19.4004 18L17.4004 15.5V8Z" fill="#1F1F1F"/>
<g clip-path="url(#clip0_987_4714)">
<path d="M16.1295 8.20798C15.6565 8.17098 15.1485 8.28398 14.3705 8.58098C14.4365 8.55598 13.6285 8.87098 13.4025 8.95098C12.9005 9.12598 12.4875 9.22198 12.0245 9.22198C11.5665 9.22198 11.1445 9.12998 10.6585 8.96698C10.5035 8.91397 10.3475 8.85698 10.1535 8.78098C10.0715 8.74898 9.77145 8.62898 9.70545 8.60398C9.05745 8.34998 8.69245 8.25398 8.38945 8.26198C7.23745 8.27698 6.14645 8.94197 5.51345 10.044C4.22145 12.288 4.93645 16.343 6.82545 19.075C7.83145 20.519 8.38145 21.035 8.60345 21.028C8.82545 21.018 8.98845 20.971 9.38645 20.803L9.55345 20.732C10.5585 20.303 11.2635 20.114 12.3245 20.114C13.3455 20.114 14.0275 20.3 14.9925 20.716L15.1605 20.788C15.5585 20.958 15.7025 20.996 15.9525 20.99C16.3105 20.985 16.7515 20.573 17.7305 19.136C17.9985 18.745 18.2355 18.333 18.4405 17.916C18.3057 17.805 18.175 17.6893 18.0485 17.569C16.7595 16.341 15.9625 14.685 15.9405 12.639C15.9189 11.1251 16.4165 9.64959 17.3505 8.45798C16.9585 8.31327 16.5468 8.22897 16.1295 8.20798ZM16.2845 6.21398C16.9925 6.26198 19.0205 6.47798 20.3405 8.40998C20.2325 8.46998 17.9165 9.81397 17.9405 12.622C17.9765 15.982 20.8805 17.098 20.9165 17.11C20.8925 17.194 20.4485 18.706 19.3805 20.266C18.4565 21.622 17.4965 22.966 15.9845 22.99C14.4965 23.026 14.0165 22.114 12.3245 22.114C10.6205 22.114 10.0925 22.966 8.68845 23.026C7.22445 23.074 6.12045 21.562 5.18445 20.218C3.27645 17.458 1.82445 12.442 3.78045 9.04597C4.75245 7.35397 6.48045 6.28598 8.36445 6.26198C9.79245 6.22598 11.1485 7.22198 12.0245 7.22198C12.8885 7.22198 14.4365 6.06998 16.2845 6.21398ZM15.1445 4.38998C14.3645 5.32598 13.0925 6.05798 11.8565 5.96198C11.6885 4.68998 12.3125 3.35798 13.0325 2.52998C13.8365 1.59398 15.1805 0.897976 16.2965 0.849976C16.4405 2.14598 15.9245 3.45398 15.1445 4.38998Z" fill="#1F1F1F"/>
</g>
<defs>
<clipPath id="clip0_987_4714">
<rect width="24" height="24" fill="white" transform="translate(0.400391)"/>
</clipPath>
</defs>
</svg>
