<svg width="70" height="14" viewBox="0 0 70 14" fill="none" xmlns="http://www.w3.org/2000/svg">
<path d="M0.9 14V12.12H3.94V1.88H0.94V-9.53674e-07H9.06V1.88H6.06V12.12H9.1V14H0.9ZM12.0122 14V-9.53674e-07H14.0922L19.9522 10.26V-9.53674e-07H21.9722V14H19.8922L14.0322 3.74V14H12.0122ZM24.4044 14V-9.53674e-07H29.1444C30.211 -9.53674e-07 31.091 0.186666 31.7844 0.559999C32.4777 0.919999 32.991 1.42 33.3244 2.06C33.6577 2.7 33.8244 3.43333 33.8244 4.26C33.8244 5.08667 33.6577 5.82 33.3244 6.46C32.991 7.1 32.4777 7.60667 31.7844 7.98C31.091 8.34 30.211 8.52 29.1444 8.52H26.5244V14H24.4044ZM26.5244 6.62H29.0444C29.951 6.62 30.611 6.40667 31.0244 5.98C31.451 5.55333 31.6644 4.98 31.6644 4.26C31.6644 3.55333 31.451 2.98667 31.0244 2.56C30.611 2.12 29.951 1.9 29.0444 1.9H26.5244V6.62ZM35.5366 14L39.7166 -9.53674e-07H42.2366L46.4166 14H44.1166L43.1766 10.64H38.7766L37.8366 14H35.5366ZM40.9166 3L39.2566 8.94H42.6966L41.0366 3H40.9166ZM51.9088 14V1.9H48.1488V-9.53674e-07H57.7888V1.9H54.0288V14H51.9088ZM63.9009 14V1.9H60.1409V-9.53674e-07H69.7809V1.9H66.0209V14H63.9009Z" fill="white"/>
</svg>