<svg width="109" height="28" viewBox="0 0 109 28" fill="none" xmlns="http://www.w3.org/2000/svg">
<g id="Group 427321066">
<g id="Subtract">
<mask id="path-1-inside-1_987_4722" fill="white">
<path fill-rule="evenodd" clip-rule="evenodd" d="M6.18133 0.0460832C2.83324 0.0531353 0.124798 2.77302 0.13185 6.12111L0.177933 27.9999L22.0567 27.9538C25.4048 27.9468 28.1133 25.2269 28.1062 21.8788L28.0601 0L6.18133 0.0460832ZM14.1361 21.9831C18.5451 21.9739 22.1117 18.3921 22.1025 13.9832C22.0932 9.57419 18.5115 6.00753 14.1025 6.01682C9.69351 6.02611 6.12686 9.60782 6.13614 14.0168C6.14543 18.4258 9.72714 21.9924 14.1361 21.9831Z"/>
</mask>
<path fill-rule="evenodd" clip-rule="evenodd" d="M6.18133 0.0460832C2.83324 0.0531353 0.124798 2.77302 0.13185 6.12111L0.177933 27.9999L22.0567 27.9538C25.4048 27.9468 28.1133 25.2269 28.1062 21.8788L28.0601 0L6.18133 0.0460832ZM14.1361 21.9831C18.5451 21.9739 22.1117 18.3921 22.1025 13.9832C22.0932 9.57419 18.5115 6.00753 14.1025 6.01682C9.69351 6.02611 6.12686 9.60782 6.13614 14.0168C6.14543 18.4258 9.72714 21.9924 14.1361 21.9831Z" fill="white"/>
<path d="M0.13185 6.12111L0.0309896 6.12132L0.13185 6.12111ZM6.18133 0.0460832L6.18112 -0.0547769L6.18133 0.0460832ZM0.177933 27.9999L0.0770729 28.0001L0.0772853 28.101L0.178145 28.1008L0.177933 27.9999ZM22.0567 27.9538L22.0565 27.853L22.0567 27.9538ZM28.1062 21.8788L28.2071 21.8786L28.1062 21.8788ZM28.0601 0L28.161 -0.000212442L28.1608 -0.101073L28.0599 -0.10086L28.0601 0ZM22.1025 13.9832L22.0016 13.9834L22.1025 13.9832ZM14.1361 21.9831L14.1359 21.8823L14.1361 21.9831ZM14.1025 6.01682L14.1027 6.11768L14.1025 6.01682ZM6.13614 14.0168L6.03528 14.017L6.13614 14.0168ZM0.23271 6.1209C0.225775 2.82851 2.88916 0.153878 6.18155 0.146943L6.18112 -0.0547769C2.77733 -0.0476074 0.0238202 2.71753 0.0309896 6.12132L0.23271 6.1209ZM0.278793 27.9997L0.23271 6.1209L0.0309896 6.12132L0.0770729 28.0001L0.278793 27.9997ZM22.0565 27.853L0.177721 27.899L0.178145 28.1008L22.0569 28.0547L22.0565 27.853ZM28.0054 21.879C28.0123 25.1714 25.3489 27.846 22.0565 27.853L22.0569 28.0547C25.4607 28.0475 28.2142 25.2824 28.2071 21.8786L28.0054 21.879ZM27.9593 0.000212442L28.0054 21.879L28.2071 21.8786L28.161 -0.000212442L27.9593 0.000212442ZM6.18155 0.146943L28.0603 0.10086L28.0599 -0.10086L6.18112 -0.0547769L6.18155 0.146943ZM22.0016 13.9834C22.0108 18.3367 18.4892 21.8731 14.1359 21.8823L14.1363 22.084C18.601 22.0746 22.2127 18.4476 22.2033 13.983L22.0016 13.9834ZM14.1027 6.11768C18.456 6.10851 21.9924 9.6301 22.0016 13.9834L22.2033 13.983C22.1939 9.51827 18.567 5.90656 14.1023 5.91596L14.1027 6.11768ZM6.237 14.0166C6.22783 9.66331 9.74942 6.12685 14.1027 6.11768L14.1023 5.91596C9.63759 5.92536 6.02588 9.55233 6.03528 14.017L6.237 14.0166ZM14.1359 21.8823C9.78263 21.8914 6.24617 18.3699 6.237 14.0166L6.03528 14.017C6.04469 18.4817 9.67165 22.0934 14.1363 22.084L14.1359 21.8823Z" fill="white" mask="url(#path-1-inside-1_987_4722)"/>
</g>
<g id="pausa.">
<path id="Vector" d="M107.898 17.4556L107.934 17.4903C108.277 17.1285 108.448 16.7024 108.447 16.2142C108.446 15.7093 108.273 15.2917 107.928 14.9657C107.601 14.622 107.182 14.4511 106.678 14.4522C106.172 14.4532 105.746 14.6262 105.403 14.971C105.076 15.2988 104.915 15.7171 104.916 16.2216C104.917 16.709 105.08 17.1341 105.406 17.4946L105.406 17.4946L105.408 17.4965C105.753 17.8399 106.18 18.011 106.685 18.01C107.19 18.0089 107.608 17.836 107.934 17.4902L107.898 17.4556ZM107.898 17.4556C108.231 17.103 108.398 16.6893 108.397 16.2143C108.396 15.7217 108.228 15.3174 107.893 15.0014L105.444 17.4608C105.779 17.7943 106.192 17.9606 106.685 17.9595C107.178 17.9585 107.582 17.7905 107.898 17.4556Z" fill="white" stroke="white" stroke-width="0.10086"/>
<path id="Vector_2" d="M89.9819 14.8255L89.9822 14.8261C90.5338 15.8174 91.2802 16.6051 92.2214 17.1884L92.2219 17.1887C93.1638 17.7547 94.2115 18.0362 95.3637 18.0338C96.3381 18.0318 97.1992 17.835 97.9456 17.4421L97.9459 17.4419C98.5605 17.1115 99.0716 16.6831 99.4787 16.1567L99.482 17.7108L99.4821 17.7613L99.5326 17.7611L101.934 17.7561L101.984 17.756L101.984 17.7056L101.958 5.17088L101.958 5.12045L101.907 5.12056L99.5059 5.12562L99.4555 5.12572L99.4556 5.17615L99.4589 6.74283C99.0365 6.21563 98.5148 5.79391 97.8942 5.47793C97.1462 5.07054 96.2931 4.8685 95.336 4.87051C94.166 4.87298 93.1105 5.16783 92.1709 5.75563L92.1709 5.75563L92.1705 5.75586C91.2495 6.34306 90.5153 7.13384 89.9681 8.12727L89.9681 8.12727L89.9678 8.12788C89.4378 9.12223 89.1746 10.2394 89.1772 11.4784C89.1798 12.7173 89.4477 13.8334 89.9819 14.8255ZM99.1262 9.23641L99.1262 9.23642L99.1269 9.23788C99.458 9.86193 99.6254 10.6009 99.6272 11.4563C99.6298 12.695 99.2746 13.7123 98.5646 14.5123C97.8556 15.2937 96.9206 15.6866 95.7546 15.6891C94.9711 15.6907 94.2761 15.5095 93.6683 15.1465C93.0597 14.7831 92.5812 14.2894 92.2323 13.6648C91.9011 13.0229 91.7339 12.2839 91.7322 11.4466C91.7305 10.6268 91.8946 9.90471 92.2231 9.27904C92.5695 8.63493 93.0373 8.13059 93.6266 7.76484C94.2329 7.39941 94.927 7.21529 95.7103 7.21364C96.4938 7.21199 97.1797 7.39326 97.7697 7.75594L97.7697 7.75595L97.7706 7.7565C98.3606 8.10186 98.8123 8.59466 99.1262 9.23641Z" fill="white" stroke="white" stroke-width="0.10086"/>
<path id="Vector_3" d="M81.5262 17.7967L81.5262 17.7968L81.5278 17.7972C82.1662 17.9731 82.8395 18.0602 83.5474 18.0587C84.9628 18.0557 86.0917 17.7083 86.9286 17.011C87.7843 16.3126 88.2102 15.3644 88.2077 14.1721C88.2061 13.3913 88.0362 12.7561 87.6935 12.271C87.3713 11.7901 86.9511 11.4074 86.4336 11.1233C85.9196 10.8411 85.3792 10.621 84.8124 10.4628C84.2493 10.2881 83.7037 10.1222 83.1756 9.96497C82.6687 9.80879 82.2603 9.61823 81.949 9.39435C81.6462 9.17663 81.4938 8.86736 81.4929 8.45981C81.492 8.05453 81.6588 7.74468 81.9958 7.52464L81.9958 7.52464L81.9963 7.52432C82.3535 7.28504 82.8697 7.1615 83.5508 7.16007C84.1953 7.15871 84.7684 7.2794 85.2713 7.52087L85.2713 7.52088L85.2719 7.52116C85.793 7.76297 86.2271 8.10881 86.5749 8.55902L86.61 8.60447L86.6506 8.56377L88.1779 7.03L88.2081 6.99965L88.1831 6.96492C87.6838 6.27263 87.0424 5.75805 86.2595 5.4218C85.4946 5.06815 84.6162 4.89308 83.6252 4.89516C82.6876 4.89714 81.8801 5.0492 81.2042 5.35327L81.2042 5.35327L81.2038 5.35348C80.5456 5.65757 80.0288 6.09562 79.6551 6.66764C79.2805 7.22328 79.095 7.8847 79.0966 8.64958C79.0982 9.41271 79.2592 10.0304 79.5845 10.4981L79.5845 10.4981L79.5852 10.4991C79.9251 10.9622 80.3542 11.3271 80.8717 11.5934C81.3852 11.8576 81.9249 12.0775 82.491 12.2531L82.491 12.2531L82.4927 12.2536C83.0727 12.4104 83.6173 12.5761 84.1267 12.7505L84.1267 12.7506L84.1282 12.751C84.6342 12.9069 85.0416 13.1144 85.3525 13.3724L85.3524 13.3724L85.3549 13.3742C85.6753 13.6093 85.8369 13.9449 85.8379 14.3882C85.8388 14.8272 85.647 15.1727 85.2566 15.4287C84.8637 15.6687 84.303 15.7923 83.569 15.7939C82.8365 15.7954 82.1749 15.6661 81.5836 15.4068C80.9926 15.1301 80.47 14.714 80.0158 14.1575L79.9805 14.1142L79.941 14.1538L78.4137 15.6876L78.3816 15.7199L78.4104 15.7551C78.8017 16.2333 79.2638 16.6491 79.7964 17.0026L79.7974 17.0032C80.3297 17.3388 80.906 17.6033 81.5262 17.7967Z" fill="white" stroke="white" stroke-width="0.10086"/>
<path id="Vector_4" d="M68.9905 17.3963L68.9916 17.3969C69.8275 17.857 70.7601 18.0856 71.7883 18.0834C72.8687 18.0812 73.8097 17.8489 74.6093 17.3846L74.6096 17.3844C75.4257 16.9031 76.064 16.2442 76.524 15.4085C76.9844 14.5722 77.2126 13.6042 77.2103 12.5063L77.195 5.223L77.1949 5.17257L77.1444 5.17268L74.7694 5.17768L74.719 5.17778L74.7191 5.22821L74.7342 12.406C74.7364 13.4352 74.4766 14.2406 73.9605 14.8281C73.4453 15.3971 72.7306 15.6847 71.8096 15.6867C71.2012 15.688 70.6734 15.5588 70.2243 15.3009C69.7756 15.0433 69.4298 14.6737 69.1868 14.1905C68.9608 13.6888 68.8463 13.0985 68.8448 12.4184L68.8297 5.24062L68.8296 5.19019L68.7792 5.1903L66.4042 5.1953L66.3538 5.1954L66.3539 5.24583L66.3692 12.5291C66.3715 13.6271 66.6038 14.594 67.0677 15.4285C67.5312 16.2622 68.1724 16.9184 68.9905 17.3963Z" fill="white" stroke="white" stroke-width="0.10086"/>
<path id="Vector_5" d="M52.1294 14.9053L52.1297 14.9059C52.6812 15.8973 53.4277 16.685 54.3688 17.2682L54.3694 17.2686C55.3113 17.8345 56.3589 18.1161 57.5111 18.1137C58.4856 18.1116 59.3467 17.9149 60.093 17.5219L60.0934 17.5217C60.7079 17.1913 61.219 16.7629 61.6262 16.2366L61.6295 17.7907L61.6296 17.8411L61.68 17.841L64.0814 17.8359L64.1318 17.8358L64.1317 17.7854L64.1053 5.25072L64.1052 5.20029L64.0548 5.20039L61.6534 5.20545L61.603 5.20556L61.6031 5.25599L61.6064 6.82267C61.184 6.29546 60.6622 5.87374 60.0416 5.55776C59.2937 5.15037 58.4405 4.94833 57.4834 4.95035C56.3135 4.95281 55.258 5.24766 54.3183 5.83547L54.3183 5.83546L54.318 5.8357C53.397 6.4229 52.6628 7.21368 52.1156 8.2071L52.1156 8.2071L52.1153 8.20771C51.5853 9.20207 51.3221 10.3193 51.3247 11.5582C51.3273 12.7971 51.5952 13.9132 52.1294 14.9053ZM61.2737 9.31624L61.2736 9.31625L61.2744 9.31772C61.6054 9.94176 61.7728 10.6807 61.7746 11.5362C61.7772 12.7748 61.4221 13.7921 60.7121 14.5922C60.003 15.3736 59.068 15.7665 57.902 15.7689C57.1186 15.7706 56.4236 15.5893 55.8157 15.2263C55.2071 14.8629 54.7286 14.3693 54.3798 13.7447C54.0486 13.1028 53.8814 12.3638 53.8796 11.5264C53.8779 10.7066 54.042 9.98455 54.3705 9.35888C54.717 8.71476 55.1848 8.21042 55.7741 7.84468C56.3804 7.47924 57.0744 7.29512 57.8578 7.29347C58.6413 7.29182 59.3272 7.4731 59.9172 7.83578L59.9172 7.83579L59.9181 7.83634C60.508 8.18169 60.9598 8.6745 61.2737 9.31624Z" fill="white" stroke="white" stroke-width="0.10086"/>
<path id="Vector_6" d="M41.5991 17.5606L41.5991 17.5606L41.6004 17.5612C42.3829 17.9504 43.2532 18.1436 44.2103 18.1416C45.3625 18.1392 46.4003 17.8532 47.3224 17.2831L47.3226 17.283C48.2614 16.6957 48.9959 15.9046 49.5257 14.9107C50.0557 13.9164 50.3189 12.7992 50.3163 11.5602C50.3137 10.3213 50.0458 9.20522 49.5116 8.21311C48.9777 7.22148 48.2399 6.43359 47.2987 5.85028C46.3742 5.26633 45.335 4.97585 44.1825 4.97828C43.2426 4.98026 42.3818 5.18607 41.6009 5.59629C40.9771 5.91716 40.4483 6.34485 40.0147 6.87908L40.0114 5.30138L40.0113 5.25095L39.9609 5.25106L37.5859 5.25606L37.5355 5.25617L37.5356 5.3066L37.573 23.0926L37.5731 23.1431L37.6236 23.143L39.9986 23.138L40.049 23.1378L40.0489 23.0874L40.0345 16.2703C40.4569 16.8002 40.9786 17.2303 41.5991 17.5606ZM45.851 7.86532L45.851 7.86533L45.8519 7.86588C46.4424 8.21152 46.9121 8.70493 47.2613 9.34759C47.61 9.98958 47.7859 10.7197 47.7876 11.5392C47.7894 12.3763 47.6166 13.1158 47.2707 13.7591C46.9242 14.3857 46.4563 14.8816 45.8666 15.2475C45.2781 15.6127 44.593 15.7969 43.8095 15.7985C43.0439 15.8001 42.3578 15.619 41.7499 15.256C41.1591 14.8928 40.6983 14.3994 40.3669 13.775C40.0529 13.1328 39.8944 12.4022 39.8927 11.5822C39.8909 10.7445 40.0551 10.0046 40.3839 9.36113C40.7126 8.71753 41.1713 8.22248 41.76 7.8745L41.76 7.87451L41.761 7.87394C42.3494 7.50877 43.0345 7.32461 43.818 7.32296C44.5837 7.32135 45.2608 7.50253 45.851 7.86532Z" fill="white" stroke="white" stroke-width="0.10086"/>
</g>
</g>
</svg>
