<svg width="157" height="13" viewBox="0 0 157 13" fill="none" xmlns="http://www.w3.org/2000/svg">
<path d="M10.5164 7.31336C11.8568 7.31336 12.9434 6.2235 12.9434 4.87909C12.9434 3.53468 11.8568 2.44482 10.5164 2.44482C9.17597 2.44482 8.08936 3.53468 8.08936 4.87909C8.08936 6.2235 9.17597 7.31336 10.5164 7.31336Z" fill="#919191"/>
<path d="M6.74049 8.12549H2.96512C2.66725 8.12549 2.42578 8.36768 2.42578 8.66644V12.4531C2.42578 12.7518 2.66725 12.994 2.96512 12.994H6.74049C7.03836 12.994 7.27983 12.7518 7.27983 12.4531V8.66644C7.27983 8.36768 7.03836 8.12549 6.74049 8.12549Z" fill="#919191"/>
<path d="M5.62514 4.74488C5.64998 4.70369 5.66305 4.65697 5.66305 4.60941C5.66305 4.56185 5.64998 4.51513 5.62514 4.47394L3.078 0.13896C3.05127 0.0995997 3.0147 0.0672543 2.9716 0.0448626C2.9285 0.0224708 2.88024 0.0107422 2.83121 0.0107422C2.78217 0.0107422 2.73391 0.0224708 2.69081 0.0448626C2.64771 0.0672543 2.61114 0.0995997 2.58442 0.13896L0.0372779 4.47394C0.0125479 4.51538 -0.000309863 4.56234 5.67063e-06 4.61006C0.000321204 4.65778 0.0137989 4.70458 0.0390748 4.74571C0.0643508 4.78685 0.100528 4.82086 0.143946 4.84431C0.187365 4.86776 0.236483 4.87982 0.286332 4.87926H5.38061C5.43008 4.87928 5.47869 4.86687 5.5216 4.8433C5.5645 4.81972 5.6002 4.78578 5.62514 4.74488Z" fill="#919191"/>
<path d="M154.732 10.8266V1.07324H156.438V10.8266H154.732Z" fill="#919191"/>
<path d="M148.263 11.0333C146.104 11.0333 144.508 9.24496 144.508 7.01641C144.508 4.78786 146.104 2.99951 148.263 2.99951C149.611 2.99951 150.657 3.72861 151.138 4.73283H151.193V3.21962H152.872V10.827H151.193V9.34126H151.138C150.478 10.5381 149.488 11.0333 148.263 11.0333ZM148.621 9.41004C149.997 9.41004 150.946 8.3783 150.946 7.01641C150.946 5.64076 149.997 4.62278 148.621 4.62278C147.259 4.62278 146.324 5.64076 146.324 7.01641C146.324 8.3783 147.259 9.41004 148.621 9.41004Z" fill="#919191"/>
<path d="M142.391 1.99469C141.841 1.99469 141.387 1.54073 141.387 0.990468C141.387 0.440208 141.841 0 142.391 0C142.941 0 143.381 0.440208 143.381 0.990468C143.381 1.54073 142.941 1.99469 142.391 1.99469ZM141.524 10.8126V3.21902H143.258V10.8126H141.524Z" fill="#919191"/>
<path d="M137.631 11.0321C135.389 11.0321 133.573 9.22999 133.573 6.98768C133.573 4.75913 135.389 2.95703 137.631 2.95703C138.787 2.95703 139.846 3.45227 140.575 4.22263L139.461 5.36442C139.035 4.88294 138.402 4.5803 137.631 4.5803C136.338 4.5803 135.307 5.62579 135.307 6.98768C135.307 8.36333 136.338 9.40883 137.631 9.40883C138.361 9.40883 138.938 9.14745 139.365 8.721L140.479 9.84903C139.75 10.5919 138.746 11.0321 137.631 11.0321Z" fill="#919191"/>
<path d="M131.453 1.99469C130.903 1.99469 130.449 1.54073 130.449 0.990468C130.449 0.440208 130.903 0 131.453 0C132.003 0 132.443 0.440208 132.443 0.990468C132.443 1.54073 132.003 1.99469 131.453 1.99469ZM125.551 10.8264V1.07301H129.293V2.68252H127.285V4.85604H129.128V6.47931H127.285V10.8264H125.551ZM130.586 10.8126V3.21902H132.319V10.8126H130.586Z" fill="#919191"/>
<path d="M119.949 10.8271V3.21973H124.53V4.82924H121.682V10.8271H119.949Z" fill="#919191"/>
<path d="M114.553 11.0332C112.228 11.0332 110.412 9.21736 110.412 6.98881C110.412 4.76026 112.228 3.01318 114.553 3.01318C116.878 3.01318 118.694 4.76026 118.694 7.04384C118.694 7.16764 118.68 7.38775 118.638 7.5941H112.255C112.448 8.63959 113.425 9.42371 114.58 9.42371C115.488 9.42371 116.245 8.99726 116.603 8.22689H118.501C117.964 9.86392 116.451 11.0332 114.553 11.0332ZM112.283 6.28723H116.781C116.63 5.3793 115.736 4.62269 114.525 4.62269C113.315 4.62269 112.407 5.32427 112.283 6.28723Z" fill="#919191"/>
<path d="M101.184 13.0004V3.21953H102.876V4.76026H102.931C103.398 3.70101 104.581 3.01318 105.888 3.01318C107.952 3.01318 109.548 4.80153 109.548 7.03008C109.548 9.25863 107.952 11.047 105.888 11.047C104.636 11.047 103.632 10.5105 102.972 9.36868H102.917V13.0004H101.184ZM105.434 9.42371C106.714 9.42371 107.773 8.48827 107.773 7.03008C107.773 5.57189 106.714 4.63645 105.434 4.63645C104.169 4.63645 103.123 5.57189 103.123 7.03008C103.123 8.48827 104.169 9.42371 105.434 9.42371Z" fill="#919191"/>
<path d="M96.2715 11.0334C94.3869 11.0334 93.0112 9.7403 93.0112 7.86942V3.21973H94.717V7.96572C94.717 8.91491 95.3498 9.4239 96.2715 9.4239C97.2345 9.4239 97.7985 8.85989 97.7985 7.96572V3.21973H99.5318V7.86942C99.5318 9.7403 98.1562 11.0334 96.2715 11.0334Z" fill="#919191"/>
<path d="M88.9828 11.0332C87.3595 11.0332 86.1489 9.9327 86.1489 8.59832H87.8685C87.8822 9.09355 88.3775 9.45122 89.0103 9.45122C89.6843 9.45122 90.1108 9.12107 90.1108 8.62583C90.1108 7.99303 89.4367 7.85547 88.7489 7.67663C87.3182 7.31897 86.3002 6.72744 86.3002 5.33803C86.3002 4.03116 87.4833 3.01318 89.0378 3.01318C90.5372 3.01318 91.7753 4.04492 91.7753 5.39306L90.0558 5.3793C90.0558 4.87031 89.5743 4.58142 89.0378 4.58142C88.4875 4.58142 88.0198 4.85655 88.0198 5.32427C88.0198 5.88829 88.6801 6.02586 89.3679 6.20469C90.3859 6.46606 91.7891 6.80998 91.7891 8.59832C91.7891 9.94646 90.5235 11.0332 88.9828 11.0332Z" fill="#919191"/>
<path d="M76.6752 13.0006L78.271 9.68528L75.2583 3.21973H77.1292L79.2339 7.70434L81.1048 3.21973H82.9757L78.5599 13.0006H76.6752Z" fill="#919191"/>
<path d="M71.4552 11.0329C70.2446 11.0329 69.1579 10.5377 68.4976 9.34089H68.4288V10.8266H66.7505V1.07324H68.4838V4.73247H68.5388C69.0203 3.72824 70.1071 2.99915 71.4552 2.99915C73.5187 2.99915 75.1144 4.78749 75.1144 7.01605C75.1144 9.2446 73.5187 11.0329 71.4552 11.0329ZM71.0012 9.40968C72.3769 9.40968 73.2986 8.37794 73.2986 7.01605C73.2986 5.6404 72.3769 4.62242 71.0012 4.62242C69.6394 4.62242 68.6902 5.6404 68.6902 7.01605C68.6902 8.37794 69.6394 9.40968 71.0012 9.40968Z" fill="#919191"/>
<path d="M58.4654 11.0332C56.1406 11.0332 54.3247 9.21736 54.3247 6.98881C54.3247 4.76026 56.1406 3.01318 58.4654 3.01318C60.7903 3.01318 62.6061 4.76026 62.6061 7.04384C62.6061 7.16764 62.5924 7.38775 62.5511 7.5941H56.1681C56.3607 8.63959 57.3374 9.42371 58.4929 9.42371C59.4009 9.42371 60.1575 8.99726 60.5151 8.22689H62.4135C61.877 9.86392 60.3638 11.0332 58.4654 11.0332ZM56.1956 6.28723H60.694C60.5426 5.3793 59.6485 4.62269 58.4379 4.62269C57.2273 4.62269 56.3194 5.32427 56.1956 6.28723Z" fill="#919191"/>
<path d="M48.3643 11.0329C46.3008 11.0329 44.7051 9.2446 44.7051 7.01605C44.7051 4.78749 46.3008 2.99915 48.3643 2.99915C49.7124 2.99915 50.7992 3.72824 51.2807 4.73247H51.3357V1.07324H53.069V10.8266H51.3907V9.34089H51.3219C50.6616 10.5377 49.5749 11.0329 48.3643 11.0329ZM48.8183 9.40968C50.1802 9.40968 51.1294 8.37794 51.1294 7.01605C51.1294 5.6404 50.1802 4.62242 48.8183 4.62242C47.4426 4.62242 46.5209 5.6404 46.5209 7.01605C46.5209 8.37794 47.4426 9.40968 48.8183 9.40968Z" fill="#919191"/>
<path d="M38.8293 11.0333C36.6695 11.0333 35.0737 9.24496 35.0737 7.01641C35.0737 4.78786 36.6695 2.99951 38.8293 2.99951C40.1774 2.99951 41.2229 3.72861 41.7044 4.73283H41.7594V3.21962H43.4377V10.827H41.7594V9.34126H41.7044C41.044 10.5381 40.0536 11.0333 38.8293 11.0333ZM39.1869 9.41004C40.5626 9.41004 41.5118 8.3783 41.5118 7.01641C41.5118 5.64076 40.5626 4.62278 39.1869 4.62278C37.825 4.62278 36.8896 5.64076 36.8896 7.01641C36.8896 8.3783 37.825 9.41004 39.1869 9.41004Z" fill="#919191"/>
<path d="M33.8245 3.21973V10.8271H32.1187V4.82924H28.6521V10.8271H26.9463V4.82924H23.4934V10.8271H21.7876V3.21973H33.8245Z" fill="#919191"/>
</svg>
