<svg width="109" height="28" viewBox="0 0 109 28" fill="none" xmlns="http://www.w3.org/2000/svg">
<mask id="path-1-inside-1_987_8085" fill="white">
<path fill-rule="evenodd" clip-rule="evenodd" d="M6.0495 0.0460832C2.70141 0.0531353 -0.00703834 2.77302 1.37401e-05 6.12111L0.046097 27.9999L21.9249 27.9538C25.273 27.9468 27.9814 25.2269 27.9744 21.8788L27.9283 0L6.0495 0.0460832ZM14.0043 21.9831C18.4133 21.9739 21.9799 18.3921 21.9706 13.9832C21.9613 9.57419 18.3796 6.00753 13.9706 6.01682C9.56167 6.02611 5.99502 9.60782 6.00431 14.0168C6.01359 18.4258 9.5953 21.9924 14.0043 21.9831Z"/>
</mask>
<path fill-rule="evenodd" clip-rule="evenodd" d="M6.0495 0.0460832C2.70141 0.0531353 -0.00703834 2.77302 1.37401e-05 6.12111L0.046097 27.9999L21.9249 27.9538C25.273 27.9468 27.9814 25.2269 27.9744 21.8788L27.9283 0L6.0495 0.0460832ZM14.0043 21.9831C18.4133 21.9739 21.9799 18.3921 21.9706 13.9832C21.9613 9.57419 18.3796 6.00753 13.9706 6.01682C9.56167 6.02611 5.99502 9.60782 6.00431 14.0168C6.01359 18.4258 9.5953 21.9924 14.0043 21.9831Z" fill="white"/>
<path d="M1.37401e-05 6.12111L0.100874 6.1209L1.37401e-05 6.12111ZM6.0495 0.0460832L6.04929 -0.0547769L6.0495 0.0460832ZM0.046097 27.9999L-0.054763 28.0001L-0.0545506 28.101L0.0463095 28.1008L0.046097 27.9999ZM21.9249 27.9538L21.9247 27.853L21.9249 27.9538ZM27.9744 21.8788L27.8735 21.879L27.9744 21.8788ZM27.9283 0L28.0292 -0.000212442L28.0289 -0.101073L27.9281 -0.10086L27.9283 0ZM13.9706 6.01682L13.9709 6.11768L13.9706 6.01682ZM6.00431 14.0168L5.90345 14.017L6.00431 14.0168ZM0.100874 6.1209C0.0939391 2.82851 2.75732 0.153878 6.04971 0.146943L6.04929 -0.0547769C2.64549 -0.0476074 -0.108016 2.71753 -0.100846 6.12132L0.100874 6.1209ZM0.146957 27.9997L0.100874 6.1209L-0.100846 6.12132L-0.054763 28.0001L0.146957 27.9997ZM21.9247 27.853L0.0458846 27.899L0.0463095 28.1008L21.9251 28.0547L21.9247 27.853ZM27.8735 21.879C27.8805 25.1714 25.2171 27.846 21.9247 27.853L21.9251 28.0547C25.3289 28.0475 28.0824 25.2824 28.0752 21.8786L27.8735 21.879ZM27.8274 0.000212442L27.8735 21.879L28.0752 21.8786L28.0292 -0.000212442L27.8274 0.000212442ZM6.04971 0.146943L27.9285 0.10086L27.9281 -0.10086L6.04929 -0.0547769L6.04971 0.146943ZM21.8698 13.9834C21.8789 18.3367 18.3573 21.8731 14.0041 21.8823L14.0045 22.084C18.4692 22.0746 22.0809 18.4476 22.0715 13.983L21.8698 13.9834ZM13.9709 6.11768C18.3241 6.10851 21.8606 9.6301 21.8698 13.9834L22.0715 13.983C22.0621 9.51827 18.4351 5.90656 13.9704 5.91596L13.9709 6.11768ZM6.10517 14.0166C6.096 9.66331 9.61759 6.12685 13.9709 6.11768L13.9704 5.91596C9.50576 5.92536 5.89404 9.55233 5.90345 14.017L6.10517 14.0166ZM14.0041 21.8823C9.65079 21.8914 6.11434 18.3699 6.10517 14.0166L5.90345 14.017C5.91285 18.4817 9.53981 22.0934 14.0045 22.084L14.0041 21.8823Z" fill="white" mask="url(#path-1-inside-1_987_8085)"/>
<path d="M107.766 17.4557L107.803 17.4904C108.145 17.1287 108.316 16.7025 108.315 16.2143C108.314 15.7094 108.141 15.2919 107.796 14.9658C107.469 14.6221 107.051 14.4512 106.546 14.4523C106.04 14.4534 105.614 14.6263 105.271 14.9711C104.944 15.299 104.783 15.7172 104.784 16.2217C104.785 16.7091 104.949 17.1342 105.274 17.4947L105.274 17.4948L105.276 17.4966C105.621 17.8401 106.048 18.0112 106.553 18.0101C107.059 18.009 107.476 17.8361 107.803 17.4903L107.766 17.4557ZM107.766 17.4557C108.099 17.1032 108.266 16.6894 108.265 16.2144C108.264 15.7218 108.096 15.3175 107.761 15.0016L105.312 17.4609C105.647 17.7944 106.061 17.9607 106.553 17.9597C107.046 17.9586 107.45 17.7906 107.766 17.4557Z" fill="white" stroke="white" stroke-width="0.10086"/>
<path d="M89.8501 14.8252L89.8504 14.8258C90.4019 15.8172 91.1484 16.6049 92.0895 17.1881L92.0901 17.1885C93.032 17.7545 94.0796 18.036 95.2318 18.0336C96.2063 18.0315 97.0674 17.8348 97.8137 17.4418L97.8141 17.4416C98.4286 17.1112 98.9397 16.6828 99.3469 16.1565L99.3502 17.7106L99.3503 17.761L99.4007 17.7609L101.802 17.7558L101.853 17.7557L101.852 17.7053L101.826 5.17064L101.826 5.12021L101.775 5.12032L99.3741 5.12537L99.3237 5.12548L99.3238 5.17591L99.3271 6.74259C98.9047 6.21538 98.3829 5.79367 97.7623 5.47769C97.0144 5.07029 96.1612 4.86825 95.2041 4.87027C94.0342 4.87273 92.9787 5.16758 92.039 5.75539L92.039 5.75539L92.0387 5.75562C91.1177 6.34282 90.3835 7.1336 89.8363 8.12703L89.8363 8.12702L89.836 8.12764C89.306 9.12199 89.0428 10.2392 89.0454 11.4781C89.048 12.717 89.3159 13.8331 89.8501 14.8252ZM98.9944 9.23616L98.9943 9.23618L98.9951 9.23764C99.3262 9.86168 99.4935 10.6006 99.4953 11.4561C99.498 12.6947 99.1428 13.712 98.4328 14.5121C97.7237 15.2935 96.7887 15.6864 95.6227 15.6888C94.8393 15.6905 94.1443 15.5092 93.5364 15.1462C92.9278 14.7828 92.4493 14.2892 92.1005 13.6646C91.7693 13.0227 91.6021 12.2837 91.6003 11.4463C91.5986 10.6265 91.7627 9.90447 92.0912 9.2788C92.4377 8.63469 92.9055 8.13035 93.4948 7.7646C94.1011 7.39916 94.7951 7.21505 95.5785 7.2134C96.362 7.21175 97.0479 7.39302 97.6379 7.7557L97.6379 7.75571L97.6388 7.75626C98.2287 8.10161 98.6805 8.59442 98.9944 9.23616Z" fill="white" stroke="white" stroke-width="0.10086"/>
<path d="M81.3943 17.7967L81.3943 17.7968L81.396 17.7972C82.0344 17.9731 82.7076 18.0602 83.4156 18.0587C84.8309 18.0557 85.9598 17.7083 86.7967 17.011C87.6525 16.3126 88.0784 15.3644 88.0759 14.1721C88.0742 13.3913 87.9044 12.7561 87.5617 12.271C87.2394 11.7901 86.8192 11.4074 86.3017 11.1233C85.7877 10.8411 85.2474 10.621 84.6806 10.4628C84.1174 10.2881 83.5718 10.1222 83.0438 9.96497C82.5368 9.80879 82.1285 9.61823 81.8171 9.39435C81.5143 9.17663 81.3619 8.86736 81.3611 8.45981C81.3602 8.05453 81.527 7.74468 81.8639 7.52464L81.8639 7.52464L81.8644 7.52432C82.2217 7.28504 82.7378 7.1615 83.419 7.16007C84.0635 7.15871 84.6366 7.2794 85.1395 7.52087L85.1395 7.52088L85.1401 7.52116C85.6611 7.76297 86.0953 8.10881 86.4431 8.55902L86.4782 8.60447L86.5187 8.56377L88.0461 7.03L88.0763 6.99965L88.0512 6.96492C87.552 6.27263 86.9105 5.75805 86.1276 5.4218C85.3628 5.06815 84.4843 4.89308 83.4934 4.89516C82.5558 4.89714 81.7483 5.0492 81.0724 5.35327L81.0724 5.35327L81.0719 5.35348C80.4137 5.65757 79.897 6.09562 79.5232 6.66764C79.1486 7.22328 78.9632 7.8847 78.9648 8.64958C78.9664 9.41271 79.1274 10.0304 79.4526 10.4981L79.4526 10.4981L79.4534 10.4991C79.7933 10.9622 80.2223 11.3271 80.7399 11.5934C81.2533 11.8576 81.7931 12.0775 82.3591 12.2531L82.3591 12.2531L82.3609 12.2536C82.9409 12.4104 83.4855 12.5761 83.9949 12.7505L83.9949 12.7506L83.9964 12.751C84.5024 12.9069 84.9098 13.1144 85.2206 13.3724L85.2206 13.3724L85.223 13.3742C85.5434 13.6093 85.7051 13.9449 85.706 14.3882C85.7069 14.8272 85.5151 15.1727 85.1248 15.4287C84.7319 15.6687 84.1712 15.7923 83.4372 15.7939C82.7046 15.7954 82.0431 15.6661 81.4517 15.4068C80.8607 15.1301 80.3381 14.714 79.884 14.1575L79.8486 14.1142L79.8092 14.1538L78.2819 15.6876L78.2497 15.7199L78.2786 15.7551C78.6699 16.2333 79.132 16.6491 79.6645 17.0026L79.6655 17.0032C80.1978 17.3388 80.7742 17.6033 81.3943 17.7967Z" fill="white" stroke="white" stroke-width="0.10086"/>
<path d="M68.8586 17.3962L68.8598 17.3968C69.6956 17.8569 70.6282 18.0855 71.6564 18.0833C72.7369 18.081 73.6778 17.8487 74.4774 17.3845L74.4777 17.3843C75.2938 16.903 75.9322 16.2441 76.3922 15.4084C76.8525 14.572 77.0808 13.6041 77.0785 12.5062L77.0631 5.22288L77.063 5.17245L77.0126 5.17255L74.6376 5.17756L74.5872 5.17766L74.5873 5.22809L74.6024 12.4058C74.6046 13.4351 74.3447 14.2405 73.8287 14.828C73.3135 15.3969 72.5988 15.6846 71.6778 15.6866C71.0694 15.6878 70.5415 15.5587 70.0925 15.3008C69.6437 15.0432 69.298 14.6735 69.0549 14.1904C68.829 13.6887 68.7144 13.0984 68.713 12.4182L68.6979 5.2405L68.6978 5.19007L68.6473 5.19017L66.2724 5.19518L66.2219 5.19528L66.222 5.24571L66.2374 12.529C66.2397 13.627 66.472 14.5939 66.9359 15.4283C67.3994 16.2621 68.0405 16.9183 68.8586 17.3962Z" fill="white" stroke="white" stroke-width="0.10086"/>
<path d="M51.9975 14.9053L51.9979 14.9059C52.5494 15.8973 53.2959 16.685 54.237 17.2682L54.2376 17.2686C55.1794 17.8345 56.2271 18.1161 57.3793 18.1137C58.3537 18.1116 59.2148 17.9149 59.9612 17.5219L59.9616 17.5217C60.5761 17.1913 61.0872 16.7629 61.4944 16.2366L61.4976 17.7907L61.4977 17.8411L61.5482 17.841L63.9496 17.8359L64 17.8358L63.9999 17.7854L63.9735 5.25072L63.9734 5.20029L63.9229 5.20039L61.5216 5.20545L61.4711 5.20556L61.4712 5.25599L61.4745 6.82267C61.0521 6.29546 60.5304 5.87374 59.9098 5.55776C59.1619 5.15037 58.3087 4.94833 57.3516 4.95035C56.1816 4.95281 55.1261 5.24766 54.1865 5.83547L54.1865 5.83546L54.1861 5.8357C53.2652 6.4229 52.531 7.21368 51.9838 8.2071L51.9838 8.2071L51.9834 8.20771C51.4534 9.20207 51.1902 10.3193 51.1928 11.5582C51.1955 12.7971 51.4634 13.9132 51.9975 14.9053ZM61.1418 9.31624L61.1418 9.31625L61.1426 9.31772C61.4736 9.94176 61.641 10.6807 61.6428 11.5362C61.6454 12.7748 61.2903 13.7921 60.5802 14.5922C59.8712 15.3736 58.9362 15.7665 57.7702 15.7689C56.9867 15.7706 56.2918 15.5893 55.6839 15.2263C55.0753 14.8629 54.5968 14.3693 54.2479 13.7447C53.9167 13.1028 53.7496 12.3638 53.7478 11.5264C53.7461 10.7066 53.9102 9.98455 54.2387 9.35888C54.5851 8.71476 55.053 8.21042 55.6422 7.84468C56.2485 7.47924 56.9426 7.29512 57.726 7.29347C58.5095 7.29182 59.1953 7.4731 59.7853 7.83578L59.7853 7.83579L59.7863 7.83634C60.3762 8.18169 60.8279 8.6745 61.1418 9.31624Z" fill="white" stroke="white" stroke-width="0.10086"/>
<path d="M41.4673 17.5604L41.4673 17.5605L41.4685 17.5611C42.2511 17.9503 43.1214 18.1435 44.0784 18.1415C45.2306 18.139 46.2685 17.8531 47.1905 17.283L47.1908 17.2828C48.1296 16.6956 48.8641 15.9045 49.3939 14.9106C49.9238 13.9162 50.187 12.799 50.1844 11.5601C50.1818 10.3212 49.9139 9.2051 49.3797 8.21299C48.8458 7.22136 48.1081 6.43347 47.1669 5.85016C46.2423 5.26621 45.2032 4.97573 44.0507 4.97815C43.1108 4.98013 42.25 5.18594 41.4691 5.59617C40.8453 5.91704 40.3164 6.34473 39.8829 6.87896L39.8796 5.30126L39.8795 5.25083L39.8291 5.25093L37.4541 5.25594L37.4036 5.25604L37.4037 5.30647L37.4412 23.0925L37.4413 23.1429L37.4917 23.1428L39.8667 23.1378L39.9172 23.1377L39.9171 23.0873L39.9027 16.2702C40.3251 16.8001 40.8468 17.2302 41.4673 17.5604ZM45.7192 7.8652L45.7192 7.86521L45.7201 7.86576C46.3105 8.21139 46.7803 8.70481 47.1294 9.34747C47.4782 9.98946 47.654 10.7196 47.6558 11.539C47.6575 12.3762 47.4847 13.1157 47.1388 13.759C46.7924 14.3856 46.3244 14.8815 45.7347 15.2474C45.1463 15.6126 44.4612 15.7967 43.6777 15.7984C42.9121 15.8 42.226 15.6189 41.618 15.2559C41.0273 14.8927 40.5664 14.3993 40.235 13.7749C39.9211 13.1326 39.7626 12.402 39.7609 11.5821C39.7591 10.7444 39.9233 10.0045 40.252 9.36101C40.5808 8.71741 41.0395 8.22235 41.6282 7.87438L41.6282 7.87439L41.6291 7.87381C42.2176 7.50865 42.9027 7.32449 43.6862 7.32284C44.4519 7.32123 45.129 7.50241 45.7192 7.8652Z" fill="white" stroke="white" stroke-width="0.10086"/>
</svg>
