<svg width="1104" height="708" viewBox="0 0 1104 708" fill="none" xmlns="http://www.w3.org/2000/svg">
<path opacity="0.15" d="M1459.4 353.735C1459.4 451.055 1377.97 539.336 1245.93 603.322C1113.92 667.288 931.513 706.868 730 706.868C528.487 706.868 346.08 667.288 214.074 603.322C82.0268 539.336 0.601053 451.055 0.601053 353.735C0.601053 256.414 82.0268 168.133 214.074 104.147C346.08 40.1816 528.487 0.601053 730 0.601053C931.513 0.601053 1113.92 40.1816 1245.93 104.147C1377.97 168.133 1459.4 256.414 1459.4 353.735Z" stroke="white" stroke-width="1.20211"/>
<path opacity="0.7" d="M1098.91 189.259C1098.91 241.171 1056.81 288.331 988.372 322.548C919.973 356.747 825.44 377.917 720.988 377.917C616.536 377.917 522.002 356.747 453.604 322.548C385.169 288.331 343.07 241.171 343.07 189.259C343.07 137.347 385.169 90.1876 453.604 55.9703C522.002 21.7711 616.536 0.601053 720.988 0.601053C825.44 0.601053 919.973 21.7711 988.372 55.9703C1056.81 90.1876 1098.91 137.347 1098.91 189.259Z" stroke="white" stroke-width="1.20211"/>
<path opacity="0.75" d="M1071.87 202.778C1071.87 250.957 1032.8 294.737 969.253 326.508C905.748 358.26 817.973 377.917 720.987 377.917C624.001 377.917 536.227 358.26 472.721 326.508C409.179 294.737 370.107 250.957 370.107 202.778C370.107 154.599 409.179 110.819 472.721 79.0479C536.227 47.295 624.001 27.638 720.987 27.638C817.973 27.638 905.748 47.295 969.253 79.0479C1032.8 110.819 1071.87 154.599 1071.87 202.778Z" stroke="white" stroke-width="1.20211"/>
<path opacity="0.8" d="M1044.83 211.79C1044.83 254.983 1008.8 294.258 950.142 322.772C891.527 351.265 810.51 368.905 720.988 368.905C631.466 368.905 550.448 351.265 491.834 322.772C433.178 294.258 397.145 254.983 397.145 211.79C397.145 168.597 433.178 129.322 491.834 100.809C550.448 72.3153 631.466 54.675 720.988 54.675C810.51 54.675 891.527 72.3153 950.142 100.809C1008.8 129.322 1044.83 168.597 1044.83 211.79Z" stroke="white" stroke-width="1.20211"/>
<path d="M1013.29 225.309C1013.29 266.026 980.766 303.046 927.828 329.922C874.924 356.781 801.796 373.411 720.988 373.411C640.18 373.411 567.052 356.781 514.148 329.922C461.21 303.046 428.688 266.026 428.688 225.309C428.688 184.591 461.21 147.571 514.148 120.695C567.052 93.8361 640.18 77.2059 720.988 77.2059C801.796 77.2059 874.924 93.8361 927.828 120.695C980.766 147.571 1013.29 184.591 1013.29 225.309Z" stroke="white" stroke-width="1.20211"/>
<path d="M986.251 238.827C986.251 274.557 956.769 307.073 908.717 330.692C860.704 354.291 794.333 368.905 720.988 368.905C647.644 368.905 581.272 354.291 533.259 330.692C485.207 307.073 455.725 274.557 455.725 238.827C455.725 203.097 485.207 170.581 533.259 146.962C581.272 123.363 647.644 108.749 720.988 108.749C794.333 108.749 860.704 123.363 908.717 146.962C956.769 170.581 986.251 203.097 986.251 238.827Z" stroke="white" stroke-width="1.20211"/>
<path d="M959.213 252.346C959.213 284.342 932.759 313.478 889.599 334.651C846.479 355.804 786.866 368.905 720.987 368.905C655.109 368.905 595.496 355.804 552.376 334.651C509.216 313.478 482.761 284.342 482.761 252.346C482.761 220.349 509.216 191.213 552.376 170.04C595.496 148.887 655.109 135.786 720.987 135.786C786.866 135.786 846.479 148.887 889.599 170.04C932.759 191.213 959.213 220.349 959.213 252.346Z" stroke="white" stroke-width="1.20211"/>
<path d="M932.177 265.864C932.177 294.13 908.997 319.886 871.14 338.611C833.32 357.318 781.031 368.905 723.241 368.905C665.451 368.905 613.162 357.318 575.343 338.611C537.485 319.886 514.305 294.13 514.305 265.864C514.305 237.598 537.485 211.842 575.343 193.117C613.162 174.41 665.451 162.823 723.241 162.823C781.031 162.823 833.32 174.41 871.14 193.117C908.997 211.842 932.177 237.598 932.177 265.864Z" stroke="white" stroke-width="1.20211"/>
<path d="M900.633 279.383C900.633 303.92 880.727 326.296 848.172 342.573C815.654 358.832 770.688 368.906 720.987 368.906C671.286 368.906 626.321 358.832 593.802 342.573C561.248 326.296 541.341 303.92 541.341 279.383C541.341 254.847 561.248 232.471 593.802 216.194C626.321 199.935 671.286 189.861 720.987 189.861C770.688 189.861 815.654 199.935 848.172 216.194C880.727 232.471 900.633 254.847 900.633 279.383Z" stroke="white" stroke-width="1.20211"/>
<path d="M873.596 292.901C873.596 313.705 856.716 332.7 829.055 346.531C801.429 360.344 763.222 368.905 720.988 368.905C678.753 368.905 640.546 360.344 612.921 346.531C585.259 332.7 568.379 313.705 568.379 292.901C568.379 272.097 585.259 253.102 612.921 239.271C640.546 225.458 678.753 216.897 720.988 216.897C763.222 216.897 801.429 225.458 829.055 239.271C856.716 253.102 873.596 272.097 873.596 292.901Z" stroke="white" stroke-width="1.20211"/>
<path d="M846.559 306.419C846.559 323.496 832.949 339.111 810.592 350.493C788.268 361.858 757.385 368.905 723.24 368.905C689.095 368.905 658.213 361.858 635.888 350.493C613.531 339.111 599.921 323.496 599.921 306.419C599.921 289.343 613.531 273.728 635.888 262.346C658.213 250.981 689.095 243.934 723.24 243.934C757.385 243.934 788.268 250.981 810.592 262.346C832.949 273.728 846.559 289.343 846.559 306.419Z" stroke="white" stroke-width="1.20211"/>
<path d="M815.016 319.938C815.016 333.29 804.673 345.524 787.622 354.455C770.6 363.372 747.042 368.905 720.988 368.905C694.933 368.905 671.376 363.372 654.353 354.455C637.302 345.524 626.959 333.29 626.959 319.938C626.959 306.586 637.302 294.352 654.353 285.421C671.376 276.504 694.933 270.971 720.988 270.971C747.042 270.971 770.6 276.504 787.622 285.421C804.673 294.352 815.016 306.586 815.016 319.938Z" stroke="white" stroke-width="1.20211"/>
<path d="M787.979 333.457C787.979 343.082 780.654 351.935 768.499 358.418C756.371 364.886 739.574 368.906 720.987 368.906C702.401 368.906 685.604 364.886 673.475 358.418C661.32 351.935 653.996 343.082 653.996 333.457C653.996 323.833 661.32 314.979 673.475 308.497C685.604 302.028 702.401 298.009 720.987 298.009C739.574 298.009 756.371 302.028 768.499 308.497C780.654 314.979 787.979 323.833 787.979 333.457Z" stroke="white" stroke-width="1.20211"/>
<path d="M760.943 344.722C760.943 349.971 756.672 354.885 749.396 358.523C742.157 362.142 732.114 364.398 720.988 364.398C709.862 364.398 699.819 362.142 692.58 358.523C685.305 354.885 681.034 349.971 681.034 344.722C681.034 339.473 685.305 334.558 692.58 330.921C699.819 327.301 709.862 325.045 720.988 325.045C732.114 325.045 742.157 327.301 749.396 330.921C756.672 334.558 760.943 339.473 760.943 344.722Z" stroke="white" stroke-width="1.20211"/>
<path d="M733.904 355.987C733.904 356.391 733.702 356.836 733.207 357.304C732.711 357.774 731.96 358.224 730.983 358.615C729.031 359.396 726.294 359.892 723.24 359.892C720.186 359.892 717.449 359.396 715.497 358.615C714.52 358.224 713.769 357.774 713.273 357.304C712.778 356.836 712.576 356.391 712.576 355.987C712.576 355.583 712.778 355.138 713.273 354.67C713.769 354.2 714.52 353.75 715.497 353.359C717.449 352.578 720.186 352.082 723.24 352.082C726.294 352.082 729.031 352.578 730.983 353.359C731.96 353.75 732.711 354.2 733.207 354.67C733.702 355.138 733.904 355.583 733.904 355.987Z" stroke="white" stroke-width="1.20211"/>
<path opacity="0.15" d="M1432.36 340.216C1432.36 433.803 1353.96 518.704 1226.81 580.244C1099.69 641.764 924.048 679.831 730 679.831C535.953 679.831 360.305 641.764 233.192 580.244C106.037 518.704 27.6382 433.803 27.6382 340.216C27.6382 246.629 106.037 161.728 233.192 100.188C360.305 38.6685 535.953 0.601053 730 0.601053C924.048 0.601053 1099.69 38.6685 1226.81 100.188C1353.96 161.728 1432.36 246.629 1432.36 340.216Z" stroke="white" stroke-width="1.20211"/>
<path opacity="0.2" d="M1414.34 326.698C1414.34 416.549 1338.46 498.071 1215.38 557.166C1092.35 616.239 922.333 652.794 734.507 652.794C546.68 652.794 376.665 616.239 253.629 557.166C130.549 498.071 54.6758 416.549 54.6758 326.698C54.6758 236.846 130.549 155.324 253.629 96.2293C376.665 37.1556 546.68 0.601053 734.507 0.601053C922.333 0.601053 1092.35 37.1556 1215.38 96.2293C1338.46 155.324 1414.34 236.846 1414.34 326.698Z" stroke="white" stroke-width="1.20211"/>
<path opacity="0.25" d="M1382.79 313.179C1382.79 399.298 1310.2 477.44 1192.42 534.088C1074.68 590.716 911.991 625.757 732.253 625.757C552.515 625.757 389.822 590.716 272.086 534.088C154.308 477.44 81.7119 399.298 81.7119 313.179C81.7119 227.06 154.308 148.918 272.086 92.2697C389.822 35.6424 552.515 0.601053 732.253 0.601053C911.991 0.601053 1074.68 35.6424 1192.42 92.2697C1310.2 148.918 1382.79 227.06 1382.79 313.179Z" stroke="white" stroke-width="1.20211"/>
<path opacity="0.3" d="M1346.74 299.66C1346.74 382.05 1277.93 456.812 1166.27 511.012C1054.65 565.192 900.405 598.72 730 598.72C559.596 598.72 405.353 565.192 293.734 511.012C182.073 456.812 113.256 382.05 113.256 299.66C113.256 217.271 182.073 142.509 293.734 88.3092C405.353 34.1291 559.596 0.601053 730 0.601053C900.405 0.601053 1054.65 34.1291 1166.27 88.3092C1277.93 142.509 1346.74 217.271 1346.74 299.66Z" stroke="white" stroke-width="1.20211"/>
<path opacity="0.35" d="M1319.71 286.142C1319.71 364.798 1253.92 436.18 1147.15 487.934C1040.42 539.668 892.939 571.683 730 571.683C567.061 571.683 419.578 539.668 312.851 487.934C206.083 436.18 140.292 364.798 140.292 286.142C140.292 207.486 206.083 136.104 312.851 84.3499C419.578 32.616 567.061 0.601053 730 0.601053C892.939 0.601053 1040.42 32.616 1147.15 84.3499C1253.92 136.104 1319.71 207.486 1319.71 286.142Z" stroke="white" stroke-width="1.20211"/>
<path opacity="0.4" d="M1283.66 272.623C1283.66 347.548 1221.4 415.55 1120.34 464.857C1019.32 514.144 879.721 544.646 725.493 544.646C571.266 544.646 431.668 514.144 330.65 464.857C229.592 415.55 167.329 347.548 167.329 272.623C167.329 197.699 229.592 129.696 330.65 80.3897C431.668 31.1027 571.266 0.601053 725.493 0.601053C879.721 0.601053 1019.32 31.1027 1120.34 80.3897C1221.4 129.696 1283.66 197.699 1283.66 272.623Z" stroke="white" stroke-width="1.20211"/>
<path opacity="0.45" d="M1252.12 259.105C1252.12 330.299 1193.38 394.921 1098.03 441.78C1002.72 488.621 871.011 517.609 725.494 517.609C579.977 517.609 448.266 488.621 352.957 441.78C257.608 394.921 198.873 330.299 198.873 259.105C198.873 187.911 257.608 123.289 352.957 76.4295C448.266 29.5894 579.977 0.601053 725.494 0.601053C871.011 0.601053 1002.72 29.5894 1098.03 76.4295C1193.38 123.289 1252.12 187.911 1252.12 259.105Z" stroke="white" stroke-width="1.20211"/>
<path opacity="0.5" d="M1220.57 243.333C1220.57 310.172 1165.37 370.851 1075.73 414.856C986.125 458.843 862.3 486.066 725.493 486.066C588.687 486.066 464.862 458.843 375.26 414.856C285.62 370.851 230.416 310.172 230.416 243.333C230.416 176.495 285.62 115.816 375.26 71.8102C464.862 27.8241 588.687 0.601053 725.493 0.601053C862.3 0.601053 986.125 27.8241 1075.73 71.8102C1165.37 115.816 1220.57 176.495 1220.57 243.333Z" stroke="white" stroke-width="1.20211"/>
<path opacity="0.55" d="M1184.52 229.815C1184.52 292.923 1132.84 350.222 1048.91 391.78C965.022 433.319 849.083 459.029 720.988 459.029C592.893 459.029 476.954 433.319 393.061 391.78C309.131 350.222 257.453 292.923 257.453 229.815C257.453 166.707 309.131 109.408 393.061 67.8498C476.954 26.3107 592.893 0.601053 720.988 0.601053C849.083 0.601053 965.022 26.3107 1048.91 67.8498C1132.84 109.408 1184.52 166.707 1184.52 229.815Z" stroke="white" stroke-width="1.20211"/>
<path opacity="0.6" d="M1157.49 216.296C1157.49 275.671 1108.83 329.591 1029.8 368.702C950.797 407.795 841.617 431.992 720.988 431.992C600.359 431.992 491.179 407.795 412.179 368.702C333.141 329.591 284.49 275.671 284.49 216.296C284.49 156.921 333.141 103.002 412.179 63.8904C491.179 24.7976 600.359 0.601053 720.988 0.601053C841.617 0.601053 950.797 24.7976 1029.8 63.8904C1108.83 103.002 1157.49 156.921 1157.49 216.296Z" stroke="white" stroke-width="1.20211"/>
<path opacity="0.65" d="M1125.94 202.778C1125.94 258.423 1080.82 308.962 1007.49 345.626C934.199 382.271 832.906 404.954 720.988 404.954C609.07 404.954 507.777 382.271 434.486 345.626C361.159 308.962 316.034 258.423 316.034 202.778C316.034 147.133 361.159 96.5934 434.486 59.9298C507.777 23.2842 609.07 0.601053 720.988 0.601053C832.906 0.601053 934.199 23.2842 1007.49 59.9298C1080.82 96.5934 1125.94 147.133 1125.94 202.778Z" stroke="white" stroke-width="1.20211"/>
</svg>
